<svg xmlns:xlink="http://www.w3.org/1999/xlink" class="icon icon__search" xmlns="http://www.w3.org/2000/svg" width="19" height="19" viewBox="0 0 19 19" fill="none">
      <path fill-rule="evenodd" clip-rule="evenodd" d="M8 14.75C11.7279 14.75 14.75 11.7279 14.75 8C14.75 4.27208 11.7279 1.25 8 1.25C4.27208 1.25 1.25 4.27208 1.25 8C1.25 11.7279 4.27208 14.75 8 14.75ZM8 16C12.4183 16 16 12.4183 16 8C16 3.58172 12.4183 0 8 0C3.58172 0 0 3.58172 0 8C0 12.4183 3.58172 16 8 16Z" fill="#FFFFFF"></path>
      <path fill-rule="evenodd" clip-rule="evenodd" d="M18.0581 18.9419L12.5581 13.4419L13.4419 12.5581L18.9419 18.0581L18.0581 18.9419Z" fill="#FFFFFF"></path>
    </svg>