<svg xmlns:xlink="http://www.w3.org/1999/xlink" xmlns="http://www.w3.org/2000/svg" width="17" height="19" viewBox="0 0 17 19" fill="none">
      <path d="M8.48779 10.3517L8.5 10.352L8.51221 10.3517C9.83935 10.3193 10.968 9.86402 11.8628 8.97508C12.7578 8.08595 13.2172 6.96318 13.2498 5.642L13.2502 5.62963L13.2498 5.61726C13.2172 4.29608 12.7578 3.17331 11.8628 2.28418C10.968 1.39524 9.83935 0.939965 8.51221 0.907556L8.5 0.907258L8.48779 0.907556C7.16065 0.939965 6.03198 1.39524 5.13719 2.28418C4.24221 3.17331 3.78284 4.29608 3.75015 5.61726L3.74985 5.62963L3.75015 5.642C3.78284 6.96318 4.24221 8.08595 5.13719 8.97508C6.03198 9.86402 7.16065 10.3193 8.48779 10.3517ZM16.0833 16.1852H16.0835L16.0832 16.173C16.0656 15.4531 15.8128 14.8287 15.3159 14.3351C14.8193 13.8417 14.1923 13.5916 13.4704 13.5742L13.4704 13.5741H13.4583H3.54167V13.5739L3.52965 13.5742C2.80768 13.5916 2.18073 13.8417 1.68407 14.3351C1.18721 14.8287 0.934352 15.4531 0.916815 16.173L0.916667 16.173V16.1852V18.2963C0.916667 18.383 0.893675 18.4193 0.865231 18.4475C0.836538 18.4761 0.798433 18.5 0.708333 18.5C0.618234 18.5 0.580129 18.4761 0.551433 18.4475C0.522992 18.4193 0.5 18.383 0.5 18.2963V16.1929C0.527638 15.318 0.827715 14.6166 1.39293 14.0551C1.95837 13.4934 2.66589 13.1942 3.54924 13.1667H13.4508C14.3341 13.1942 15.0416 13.4934 15.6071 14.0551C16.1723 14.6166 16.4724 15.318 16.5 16.1928V18.2963C16.5 18.383 16.477 18.4193 16.4486 18.4475C16.4199 18.4761 16.3818 18.5 16.2917 18.5C16.2016 18.5 16.1635 18.4761 16.1348 18.4475C16.1063 18.4193 16.0833 18.383 16.0833 18.2963V16.1852ZM12.1539 9.25507C11.1918 10.2109 9.98521 10.7155 8.5 10.7591C7.01479 10.7155 5.8082 10.2109 4.84606 9.25507C3.88417 8.29947 3.37741 7.10232 3.33354 5.62963C3.37741 4.15694 3.88417 2.95979 4.84606 2.00419C5.8082 1.04834 7.01479 0.543804 8.5 0.500201C9.98521 0.543804 11.1918 1.04834 12.1539 2.00419C13.1158 2.95979 13.6226 4.15694 13.6665 5.62963C13.6226 7.10232 13.1158 8.29947 12.1539 9.25507Z" stroke="#FFFFFF" fill="#FFFFFF"></path>
    </svg>